<?xml version="1.0" standalone="no"?>
<!DOCTYPE svg PUBLIC "-//W3C//DTD SVG 20010904//EN"
 "http://www.w3.org/TR/2001/REC-SVG-20010904/DTD/svg10.dtd">
<svg version="1.0" xmlns="http://www.w3.org/2000/svg"
 width="1536.000000pt" height="1024.000000pt" viewBox="0 0 1536.000000 1024.000000"
 preserveAspectRatio="xMidYMid meet">

<g transform="translate(0.000000,1024.000000) scale(0.100000,-0.100000)"
fill="#000000" stroke="none">
<path d="M4774 6491 c-55 -24 -70 -96 -29 -136 18 -19 35 -25 68 -25 56 0 86
23 93 71 5 28 1 41 -17 63 -26 29 -80 42 -115 27z"/>
<path d="M5859 6486 c-79 -45 -46 -156 46 -156 60 0 95 30 95 80 0 21 -8 47
-18 60 -22 27 -87 36 -123 16z"/>
<path d="M6381 6489 c-161 -28 -248 -121 -239 -253 3 -50 10 -73 33 -106 39
-56 84 -79 260 -136 177 -56 215 -83 215 -152 0 -132 -215 -168 -438 -74 l-72
30 0 -68 0 -67 83 -28 c158 -53 374 -44 484 21 149 87 149 292 -1 382 -28 17
-116 52 -194 78 -167 55 -212 86 -212 147 0 45 45 93 98 104 100 21 246 0 331
-49 18 -10 35 -18 36 -16 2 2 6 30 10 64 l7 61 -44 20 c-24 12 -61 26 -83 32
-56 16 -210 22 -274 10z"/>
<path d="M8990 6319 l0 -171 -34 30 c-54 47 -112 65 -203 60 -140 -6 -225 -72
-265 -201 -39 -129 -10 -284 68 -361 56 -55 100 -71 199 -71 97 0 140 15 198
69 15 14 30 26 32 26 2 0 5 -19 7 -42 l3 -43 73 -3 72 -3 0 441 0 440 -75 0
-75 0 0 -171z m-73 -216 c59 -27 64 -40 69 -172 l5 -121 -38 -35 c-53 -49
-128 -71 -192 -55 -85 20 -131 92 -131 202 0 72 27 137 70 168 55 39 147 45
217 13z"/>
<path d="M10611 6471 c-23 -42 -371 -847 -371 -857 0 -11 140 -3 147 8 4 7 26
58 49 113 l40 100 206 3 205 2 48 -115 47 -115 74 0 c49 0 74 4 74 12 0 11
-117 281 -284 657 l-91 203 -67 4 c-59 4 -68 2 -77 -15z m102 -196 c9 -22 43
-107 76 -189 34 -82 61 -150 61 -152 0 -2 -75 -4 -166 -4 l-165 0 7 23 c4 12
38 96 76 187 39 91 72 171 75 178 7 17 16 6 36 -43z"/>
<path d="M11266 6482 c-3 -3 -6 -200 -6 -439 l0 -433 80 0 80 0 0 435 0 435
-57 1 c-32 0 -66 2 -75 4 -9 2 -19 0 -22 -3z"/>
<path d="M3770 6044 l0 -437 228 6 c176 4 239 9 282 22 167 52 264 150 300
304 8 33 11 90 8 150 -4 82 -9 106 -36 162 -36 76 -95 135 -172 174 -87 44
-164 55 -397 55 l-213 0 0 -436z m456 302 c68 -21 135 -82 165 -148 20 -44 24
-69 24 -153 0 -120 -24 -186 -88 -240 -62 -53 -122 -69 -264 -70 l-123 0 -3
313 c-1 172 0 316 3 319 10 11 236 -6 286 -21z"/>
<path d="M5211 6218 c-74 -28 -142 -98 -167 -169 -28 -82 -25 -199 7 -269 27
-59 74 -112 119 -135 43 -22 140 -34 193 -24 53 10 77 20 125 56 l32 24 0 -58
c0 -75 -24 -121 -79 -152 -56 -31 -175 -32 -271 -2 -36 12 -66 21 -67 21 0 0
-3 -22 -5 -50 -3 -45 -1 -51 22 -60 51 -20 117 -30 205 -30 139 0 226 29 283
94 57 65 62 105 62 453 l0 314 -67 -3 -68 -3 -3 -37 -3 -38 -34 33 c-62 60
-181 75 -284 35z m222 -97 c22 -5 50 -19 63 -32 23 -22 24 -28 24 -154 0 -145
-3 -152 -75 -187 -143 -71 -265 15 -265 186 0 137 112 219 253 187z"/>
<path d="M7140 6223 c-158 -56 -241 -202 -210 -369 28 -149 140 -238 316 -251
76 -6 182 9 245 34 l39 15 0 60 c0 54 -2 59 -17 53 -197 -86 -359 -63 -414 59
-36 80 -49 76 222 76 l242 0 -6 75 c-10 130 -70 213 -178 248 -64 21 -179 21
-239 0z m211 -98 c32 -17 68 -82 69 -122 0 -23 0 -23 -170 -23 -129 0 -170 3
-170 13 1 22 37 92 58 110 52 47 146 56 213 22z"/>
<path d="M8020 6233 c-44 -15 -99 -49 -132 -80 l-36 -35 -7 56 -7 56 -69 0
-69 0 0 -310 0 -310 74 0 75 0 3 196 3 196 53 49 c77 71 158 86 221 43 44 -31
51 -68 51 -284 l0 -200 75 0 76 0 -3 248 c-3 228 -5 250 -24 287 -32 61 -105
95 -198 94 -39 0 -78 -3 -86 -6z"/>
<path d="M9440 6229 c-97 -27 -122 -41 -116 -63 3 -11 6 -35 6 -52 l0 -32 63
20 c81 25 193 34 240 19 50 -17 77 -54 77 -106 l0 -42 -113 -6 c-186 -10 -281
-50 -313 -132 -31 -83 3 -167 84 -207 38 -19 63 -23 132 -22 72 0 94 4 143 28
31 15 57 32 57 37 0 5 5 9 10 9 6 0 10 -10 10 -22 0 -37 12 -43 83 -44 l69 -1
-4 231 -3 231 -30 53 c-23 42 -40 60 -80 80 -44 23 -63 26 -165 29 -63 1 -131
-2 -150 -8z m270 -402 c0 -53 -4 -67 -22 -84 -40 -36 -85 -53 -142 -53 -73 0
-116 33 -116 90 0 30 6 44 31 64 17 14 43 29 57 32 15 3 32 7 37 9 6 2 43 4
83 4 l72 1 0 -63z"/>
<path d="M4732 5923 l3 -308 78 -1 77 -2 0 309 0 309 -80 0 -80 0 2 -307z"/>
<path d="M5832 5923 l3 -308 75 0 75 0 3 308 2 307 -80 0 -80 0 2 -307z"/>
<path d="M7600 5363 c-1437 -35 -2288 -88 -3345 -208 -250 -29 -765 -102 -773
-109 -4 -5 21 -144 33 -182 2 -8 43 -2 126 17 368 84 874 161 1619 244 519 58
1400 116 2195 145 1183 43 3180 31 4320 -24 70 -4 80 -3 45 4 -84 17 -939 68
-1495 90 -511 20 -1171 30 -1890 28 -401 -1 -777 -3 -835 -5z"/>
<path d="M8712 5014 c-44 -30 -18 -94 38 -94 54 0 80 59 42 93 -23 21 -51 22
-80 1z"/>
<path d="M6987 5010 c-95 -24 -137 -71 -137 -154 0 -43 4 -53 38 -86 29 -29
59 -44 137 -70 117 -39 161 -73 150 -118 -3 -15 -12 -33 -20 -41 -34 -35 -174
-30 -263 9 l-43 19 3 -46 c3 -44 5 -47 43 -61 26 -10 79 -15 150 -16 100 -1
114 1 154 24 65 37 86 70 85 136 0 46 -5 59 -30 85 -37 39 -64 53 -162 84 -97
31 -132 56 -132 95 0 68 126 94 242 50 29 -11 54 -20 56 -20 2 0 2 19 0 42 -3
38 -6 42 -43 55 -51 18 -178 25 -228 13z"/>
<path d="M5210 4975 l0 -34 93 -3 92 -3 3 -242 2 -243 50 0 50 0 0 245 0 245
95 0 95 0 0 35 0 35 -240 0 -240 0 0 -35z"/>
<path d="M4975 4974 c-16 -2 -73 -9 -125 -15 -163 -18 -378 -48 -560 -79 -270
-46 -578 -112 -514 -110 5 0 97 16 205 34 107 19 392 58 632 87 390 48 437 56
437 71 0 18 -8 19 -75 12z"/>
<path d="M5735 4836 c-37 -10 -40 -15 -43 -49 -3 -35 -1 -37 15 -29 10 6 47
15 81 22 99 18 152 -8 152 -73 0 -23 -4 -25 -72 -31 -102 -9 -147 -23 -180
-56 -50 -50 -31 -132 38 -165 45 -21 133 -17 183 8 41 21 41 21 41 2 0 -11 12
-15 45 -15 l45 0 0 151 c0 171 -10 202 -74 233 -41 19 -171 21 -231 2z m205
-250 c0 -58 -32 -86 -98 -86 -51 0 -82 21 -82 55 0 43 56 72 143 74 l37 1 0
-44z"/>
<path d="M6130 4846 c0 -2 34 -46 75 -97 41 -52 75 -97 75 -100 0 -3 -36 -49
-80 -102 l-80 -97 54 0 54 0 52 66 c59 75 57 75 122 -13 38 -53 39 -53 93 -53
30 0 55 3 55 6 0 3 -34 48 -75 101 -74 93 -75 95 -58 117 10 12 44 53 76 92
31 39 57 74 57 78 0 3 -22 6 -49 6 -48 0 -49 -1 -97 -65 -27 -35 -52 -65 -55
-65 -3 0 -29 29 -57 65 l-53 65 -54 0 c-30 0 -55 -2 -55 -4z"/>
<path d="M7480 4834 c-84 -36 -124 -106 -118 -205 3 -57 8 -74 34 -105 16 -21
47 -46 68 -57 49 -26 165 -33 226 -15 42 13 45 17 48 50 l3 36 -38 -14 c-55
-19 -149 -18 -184 3 -23 14 -59 74 -59 98 0 3 70 5 155 5 l155 0 0 48 c-1 104
-77 172 -195 172 -33 -1 -76 -8 -95 -16z m151 -57 c21 -16 39 -51 39 -76 0
-20 -6 -21 -105 -21 -58 0 -105 2 -105 5 0 20 32 75 51 89 27 19 97 21 120 3z"/>
<path d="M7860 4650 l0 -200 53 0 52 0 2 126 c2 69 7 133 13 143 13 26 71 51
117 51 37 0 38 1 38 37 0 29 -4 39 -18 41 -36 7 -88 -9 -121 -39 l-34 -29 -6
35 c-7 34 -8 35 -51 35 l-45 0 0 -200z"/>
<path d="M8180 4845 c0 -3 33 -78 73 -167 40 -90 79 -178 86 -195 13 -31 16
-33 65 -33 l51 0 82 188 c46 103 84 192 85 197 4 14 -70 19 -86 6 -7 -6 -37
-72 -67 -146 -30 -74 -56 -135 -59 -135 -3 0 -16 28 -29 63 -14 34 -41 99 -62
145 l-38 82 -51 0 c-27 0 -50 -2 -50 -5z"/>
<path d="M8700 4650 l0 -200 50 0 50 0 0 200 0 200 -50 0 -50 0 0 -200z"/>
<path d="M9032 4839 c-44 -13 -108 -79 -121 -126 -21 -76 -7 -158 37 -206 48
-54 187 -82 267 -55 35 11 40 17 43 47 3 31 2 33 -20 27 -13 -4 -48 -10 -79
-13 -96 -10 -149 37 -149 132 0 93 57 142 154 132 28 -2 59 -8 69 -12 14 -6
17 -1 17 33 0 36 -3 40 -31 46 -45 9 -148 6 -187 -5z"/>
<path d="M9455 4838 c-105 -37 -155 -153 -116 -271 28 -84 132 -135 255 -124
93 8 116 20 116 61 l0 34 -37 -14 c-45 -16 -141 -18 -177 -4 -28 10 -66 64
-66 93 0 15 14 17 155 17 l155 0 0 42 c0 62 -34 124 -84 153 -34 20 -56 25
-107 24 -35 0 -77 -5 -94 -11z m156 -77 c17 -17 29 -40 29 -55 l0 -26 -105 0
c-93 0 -105 2 -105 18 2 82 120 123 181 63z"/>
<path d="M9883 4831 c-49 -23 -63 -45 -63 -100 0 -61 27 -81 152 -115 31 -9
64 -23 73 -32 22 -22 15 -56 -15 -72 -31 -16 -133 -10 -184 12 l-36 15 0 -34
c0 -33 2 -35 57 -51 73 -21 187 -15 234 12 46 27 73 82 59 120 -19 49 -40 63
-129 90 -101 31 -113 39 -109 73 5 46 72 51 196 15 19 -6 22 -3 22 25 0 27 -5
34 -35 47 -50 21 -170 18 -222 -5z"/>
<path d="M3738 4763 c7 -3 16 -2 19 1 4 3 -2 6 -13 5 -11 0 -14 -3 -6 -6z"/>
</g>
</svg>
